{
  "accessors": [
    {
      "bufferView": 2,
      "componentType": 5126,
      "count": 3446,
      "max": [
        2.340709924697876,
        3.8236100673675537,
        3.2650599479675293
      ],
      "min": [
        -2.324850082397461,
        -9.989629745483398,
        -0.2717199921607971
      ],
      "type": "VEC3"
    },
    {
      "bufferView": 2,
      "byteOffset": 41352,
      "componentType": 5126,
      "count": 3446,
      "max": [
        1.0,
        1.0,
        1.0
      ],
      "min": [
        -1.0,
        -1.0,
        -1.0
      ],
      "type": "VEC3"
    },
    {
      "bufferView": 1,
      "componentType": 5126,
      "count": 3446,
      "max": [
        0.9888299703598022,
        0.9913100004196167
      ],
      "min": [
        0.0011699999449774623,
        0.0011699999449774623
      ],
      "type": "VEC2"
    },
    {
      "bufferView": 0,
      "componentType": 5125,
      "count": 7200,
      "type": "SCALAR"
    },
    {
      "bufferView": 2,
      "byteOffset": 82704,
      "componentType": 5126,
      "count": 384,
      "max": [
        2.104029893875122,
        1.6529300212860107,
        2.140739917755127
      ],
      "min": [
        -2.104029893875122,
        -8.351840019226074,
        0.9627199769020081
      ],
      "type": "VEC3"
    },
    {
      "bufferView": 2,
      "byteOffset": 87312,
      "componentType": 5126,
      "count": 384,
      "max": [
        1.0,
        1.0,
        1.0
      ],
      "min": [
        -1.0,
        -1.0,
        -1.0
      ],
      "type": "VEC3"
    },
    {
      "bufferView": 1,
      "byteOffset": 27568,
      "componentType": 5126,
      "count": 384,
      "max": [
        0.9973300099372864,
        0.98853999376297
      ],
      "min": [
        0.04771000146865845,
        0.04123000055551529
      ],
      "type": "VEC2"
    },
    {
      "bufferView": 0,
      "byteOffset": 28800,
      "componentType": 5125,
      "count": 672,
      "type": "SCALAR"
    },
    {
      "bufferView": 2,
      "byteOffset": 91920,
      "componentType": 5126,
      "count": 156,
      "max": [
        0.3518500030040741,
        0.8449900150299072,
        2.8231899738311768
      ],
      "min": [
        -0.36250999569892883,
        -6.754950046539307,
        2.742180109024048
      ],
      "type": "VEC3"
    },
    {
      "bufferView": 2,
      "byteOffset": 93792,
      "componentType": 5126,
      "count": 156,
      "max": [
        0.8978506326675415,
        0.8978506326675415,
        1.0
      ],
      "min": [
        -0.8978506326675415,
        -0.8978506326675415,
        0.440300315618515
      ],
      "type": "VEC3"
    },
    {
      "bufferView": 1,
      "byteOffset": 30640,
      "componentType": 5126,
      "count": 156,
      "max": [
        0.9964100122451782,
        0.996940016746521
      ],
      "min": [
        0.17552000284194946,
        0.3298799991607666
      ],
      "type": "VEC2"
    },
    {
      "bufferView": 0,
      "byteOffset": 31488,
      "componentType": 5125,
      "count": 234,
      "type": "SCALAR"
    },
    {
      "bufferView": 2,
      "byteOffset": 95664,
      "componentType": 5126,
      "count": 672,
      "max": [
        2.027050018310547,
        2.315000057220459,
        2.4501099586486816
      ],
      "min": [
        -2.027050018310547,
        -8.79446029663086,
        2.306989908218384
      ],
      "type": "VEC3"
    },
    {
      "bufferView": 2,
      "byteOffset": 103728,
      "componentType": 5126,
      "count": 672,
      "max": [
        1.0,
        1.0,
        1.0
      ],
      "min": [
        -1.0,
        -1.0,
        -1.0
      ],
      "type": "VEC3"
    },
    {
      "bufferView": 1,
      "byteOffset": 31888,
      "componentType": 5126,
      "count": 672,
      "max": [
        0.9963899850845337,
        0.9973099827766418
      ],
      "min": [
        0.0036100000143051147,
        0.002689999993890524
      ],
      "type": "VEC2"
    },
    {
      "bufferView": 0,
      "byteOffset": 32424,
      "componentType": 5125,
      "count": 1416,
      "type": "SCALAR"
    },
    {
      "bufferView": 2,
      "byteOffset": 111792,
      "componentType": 5126,
      "count": 12096,
      "max": [
        1.7971700429916382,
        1.9109100103378296,
        1.4128400087356567
      ],
      "min": [
        -1.7971700429916382,
        -8.565010070800781,
        0.1302500069141388
      ],
      "type": "VEC3"
    },
    {
      "bufferView": 2,
      "byteOffset": 256944,
      "componentType": 5126,
      "count": 12096,
      "max": [
        1.0,
        1.0,
        1.0
      ],
      "min": [
        -1.0,
        -1.0,
        -1.0
      ],
      "type": "VEC3"
    },
    {
      "bufferView": 1,
      "byteOffset": 37264,
      "componentType": 5126,
      "count": 12096,
      "max": [
        0.9979299902915955,
        0.9979299902915955
      ],
      "min": [
        0.0020699999295175076,
        0.0020699999295175076
      ],
      "type": "VEC2"
    },
    {
      "bufferView": 0,
      "byteOffset": 38088,
      "componentType": 5125,
      "count": 19968,
      "type": "SCALAR"
    },
    {
      "bufferView": 2,
      "byteOffset": 402096,
      "componentType": 5126,
      "count": 12014,
      "max": [
        2.0987699031829834,
        2.5601799488067627,
        0.11591999977827072
      ],
      "min": [
        -2.088670015335083,
        -8.917340278625488,
        -1.2214100360870361
      ],
      "type": "VEC3"
    },
    {
      "bufferView": 2,
      "byteOffset": 546264,
      "componentType": 5126,
      "count": 12014,
      "max": [
        1.0,
        1.0,
        1.0
      ],
      "min": [
        -1.0,
        -1.0,
        -1.0
      ],
      "type": "VEC3"
    },
    {
      "bufferView": 1,
      "byteOffset": 134032,
      "componentType": 5126,
      "count": 12014,
      "max": [
        0.9980900287628174,
        0.9980900287628174
      ],
      "min": [
        0.0019099999917671084,
        0.0019099999917671084
      ],
      "type": "VEC2"
    },
    {
      "bufferView": 0,
      "byteOffset": 117960,
      "componentType": 5125,
      "count": 22728,
      "type": "SCALAR"
    },
    {
      "bufferView": 2,
      "byteOffset": 690432,
      "componentType": 5126,
      "count": 228,
      "max": [
        0.40849998593330383,
        0.901639997959137,
        2.9646499156951904
      ],
      "min": [
        -0.41916000843048096,
        -6.811590194702148,
        2.796420097351074
      ],
      "type": "VEC3"
    },
    {
      "bufferView": 2,
      "byteOffset": 693168,
      "componentType": 5126,
      "count": 228,
      "max": [
        1.0,
        1.0,
        1.0
      ],
      "min": [
        -1.0,
        -1.0,
        -1.0
      ],
      "type": "VEC3"
    },
    {
      "bufferView": 1,
      "byteOffset": 230144,
      "componentType": 5126,
      "count": 228,
      "max": [
        1.0,
        1.0
      ],
      "min": [
        0.0,
        0.0
      ],
      "type": "VEC2"
    },
    {
      "bufferView": 0,
      "byteOffset": 208872,
      "componentType": 5125,
      "count": 450,
      "type": "SCALAR"
    }
  ],
  "asset": {
    "extras": {
      "author": "FDU_oficial (https://sketchfab.com/FDU_oficial)",
      "license": "CC-BY-4.0 (http://creativecommons.org/licenses/by/4.0/)",
      "source": "https://sketchfab.com/3d-models/vr-train-wagon-2166fbecc064479fa5a3e07c36a36af1",
      "title": "VR train wagon"
    },
    "generator": "Sketchfab-12.65.0",
    "version": "2.0"
  },
  "bufferViews": [
    {
      "buffer": 0,
      "byteLength": 210672,
      "name": "floatBufferViews",
      "target": 34963
    },
    {
      "buffer": 0,
      "byteLength": 231968,
      "byteOffset": 210672,
      "byteStride": 8,
      "name": "floatBufferViews",
      "target": 34962
    },
    {
      "buffer": 0,
      "byteLength": 695904,
      "byteOffset": 442640,
      "byteStride": 12,
      "name": "floatBufferViews",
      "target": 34962
    }
  ],
  "buffers": [
    {
      "byteLength": 1138544,
      "uri": "scene.bin"
    }
  ],
  "extensionsUsed": [
    "KHR_materials_unlit"
  ],
  "images": [
    {
      "uri": "textures/BASE.005_baseColor.png"
    },
    {
      "uri": "textures/VENTANA_baseColor.png"
    },
    {
      "uri": "textures/maleterO_baseColor.png"
    },
    {
      "uri": "textures/sillones_baseColor.png"
    },
    {
      "uri": "textures/carts_baseColor.png"
    },
    {
      "uri": "textures/lightfix_baseColor.png"
    }
  ],
  "materials": [
    {
      "doubleSided": true,
      "extensions": {
        "KHR_materials_unlit": {}
      },
      "name": "BASE.005",
      "pbrMetallicRoughness": {
        "baseColorTexture": {
          "index": 0
        },
        "metallicFactor": 0.0
      }
    },
    {
      "alphaMode": "BLEND",
      "doubleSided": true,
      "extensions": {
        "KHR_materials_unlit": {}
      },
      "name": "VENTANA",
      "pbrMetallicRoughness": {
        "baseColorTexture": {
          "index": 1
        },
        "metallicFactor": 0.0
      }
    },
    {
      "doubleSided": true,
      "extensions": {
        "KHR_materials_unlit": {}
      },
      "name": "luz.001",
      "pbrMetallicRoughness": {
        "baseColorFactor": [
          0.6618521213531494,
          0.616409420967102,
          0.4473148286342621,
          1.0
        ],
        "metallicFactor": 0.0
      }
    },
    {
      "doubleSided": true,
      "extensions": {
        "KHR_materials_unlit": {}
      },
      "name": "maleterO",
      "pbrMetallicRoughness": {
        "baseColorTexture": {
          "index": 2
        },
        "metallicFactor": 0.0
      }
    },
    {
      "doubleSided": true,
      "extensions": {
        "KHR_materials_unlit": {}
      },
      "name": "sillones",
      "pbrMetallicRoughness": {
        "baseColorTexture": {
          "index": 3
        },
        "metallicFactor": 0.0
      }
    },
    {
      "doubleSided": true,
      "extensions": {
        "KHR_materials_unlit": {}
      },
      "name": "carts",
      "pbrMetallicRoughness": {
        "baseColorTexture": {
          "index": 4
        },
        "metallicFactor": 0.0
      }
    },
    {
      "doubleSided": true,
      "extensions": {
        "KHR_materials_unlit": {}
      },
      "name": "lightfix",
      "pbrMetallicRoughness": {
        "baseColorTexture": {
          "index": 5
        },
        "metallicFactor": 0.0
      }
    }
  ],
  "meshes": [
    {
      "name": "Cube.044_0",
      "primitives": [
        {
          "attributes": {
            "NORMAL": 1,
            "POSITION": 0,
            "TEXCOORD_0": 2
          },
          "indices": 3,
          "material": 0,
          "mode": 4
        }
      ]
    },
    {
      "name": "Cube.044_1",
      "primitives": [
        {
          "attributes": {
            "NORMAL": 5,
            "POSITION": 4,
            "TEXCOORD_0": 6
          },
          "indices": 7,
          "material": 1,
          "mode": 4
        }
      ]
    },
    {
      "name": "Cube.044_2",
      "primitives": [
        {
          "attributes": {
            "NORMAL": 9,
            "POSITION": 8,
            "TEXCOORD_0": 10
          },
          "indices": 11,
          "material": 2,
          "mode": 4
        }
      ]
    },
    {
      "name": "Cube.044_3",
      "primitives": [
        {
          "attributes": {
            "NORMAL": 13,
            "POSITION": 12,
            "TEXCOORD_0": 14
          },
          "indices": 15,
          "material": 3,
          "mode": 4
        }
      ]
    },
    {
      "name": "Cube.044_4",
      "primitives": [
        {
          "attributes": {
            "NORMAL": 17,
            "POSITION": 16,
            "TEXCOORD_0": 18
          },
          "indices": 19,
          "material": 4,
          "mode": 4
        }
      ]
    },
    {
      "name": "Cube.044_5",
      "primitives": [
        {
          "attributes": {
            "NORMAL": 21,
            "POSITION": 20,
            "TEXCOORD_0": 22
          },
          "indices": 23,
          "material": 5,
          "mode": 4
        }
      ]
    },
    {
      "name": "Cube.044_6",
      "primitives": [
        {
          "attributes": {
            "NORMAL": 25,
            "POSITION": 24,
            "TEXCOORD_0": 26
          },
          "indices": 27,
          "material": 6,
          "mode": 4
        }
      ]
    }
  ],
  "nodes": [
    {
      "children": [
        1
      ],
      "matrix": [
        0.9090909361839294,
        0.0,
        0.0,
        0.0,
        0.0,
        2.0185873776588746e-16,
        -0.9090909361839294,
        0.0,
        0.0,
        0.9090909361839294,
        2.0185873776588746e-16,
        0.0,
        0.0,
        0.0,
        0.0,
        1.0
      ],
      "name": "Sketchfab_model"
    },
    {
      "children": [
        2
      ],
      "name": "Root"
    },
    {
      "children": [
        3,
        4,
        5,
        6,
        7,
        8,
        9
      ],
      "matrix": [
        1.0,
        0.0,
        0.0,
        0.0,
        0.0,
        1.0,
        0.0,
        0.0,
        0.0,
        0.0,
        1.0,
        0.0,
        0.32221000000000005,
        0.29213,
        2.33019,
        1.0
      ],
      "name": "Cube.044"
    },
    {
      "mesh": 0,
      "name": "Cube.044_0"
    },
    {
      "mesh": 1,
      "name": "Cube.044_1"
    },
    {
      "mesh": 2,
      "name": "Cube.044_2"
    },
    {
      "mesh": 3,
      "name": "Cube.044_3"
    },
    {
      "mesh": 4,
      "name": "Cube.044_4"
    },
    {
      "mesh": 5,
      "name": "Cube.044_5"
    },
    {
      "mesh": 6,
      "name": "Cube.044_6"
    }
  ],
  "samplers": [
    {
      "magFilter": 9729,
      "minFilter": 9987,
      "wrapS": 10497,
      "wrapT": 10497
    }
  ],
  "scene": 0,
  "scenes": [
    {
      "name": "Sketchfab_Scene",
      "nodes": [
        0
      ]
    }
  ],
  "textures": [
    {
      "sampler": 0,
      "source": 0
    },
    {
      "sampler": 0,
      "source": 1
    },
    {
      "sampler": 0,
      "source": 2
    },
    {
      "sampler": 0,
      "source": 3
    },
    {
      "sampler": 0,
      "source": 4
    },
    {
      "sampler": 0,
      "source": 5
    }
  ]
}
