# Blender 3.3.1
# www.blender.org
mtllib placa_codi.mtl
o Cube
v 1.723294 1.000000 -0.115189
v 1.723294 -1.000000 -0.115189
v -1.723294 1.000000 -0.115189
v -1.723294 -1.000000 -0.115189
v 1.723294 1.000000 0.048154
v 1.046672 0.565421 0.115189
v 1.046672 -0.565421 0.115189
v 1.723294 -1.000000 0.048154
v -1.046672 0.565421 0.115189
v -1.723294 1.000000 0.048154
v -1.046672 -0.565421 0.115189
v -1.723294 -1.000000 0.048154
vn -0.0000 -1.0000 -0.0000
vn -0.0000 -0.0000 -1.0000
vn -1.0000 -0.0000 -0.0000
vn -0.0000 1.0000 -0.0000
vn -0.0000 -0.0000 1.0000
vn 0.0986 -0.0000 0.9951
vn -0.0986 -0.0000 0.9951
vn -0.0000 0.1524 0.9883
vn -0.0000 -0.1524 0.9883
vn 1.0000 -0.0000 -0.0000
vt 0.410664 0.237931
vt 1.000000 1.000000
vt 0.638120 0.263868
vt 1.000000 0.000000
vt 0.410664 0.025032
vt 0.638120 0.039836
vt 0.517114 0.237931
vt 0.476493 0.275549
vt 0.000000 1.000000
vt 0.000000 0.000000
vt 0.517114 0.025032
vt 0.476493 0.050378
vt 1.000000 0.822744
vt 0.829237 0.293877
vt 0.899812 0.904426
vt 0.558698 0.263868
vt 0.703468 0.624882
vt 0.635863 0.228358
vt 0.669287 0.750608
vt 0.703468 0.415859
vt 0.635863 0.118902
vt 0.660098 0.283468
vt 1.000000 0.177256
vt 0.829237 0.032049
vt 0.885327 0.102239
vt 0.558698 0.039836
vt 0.285421 0.624882
vt 0.373155 0.915064
vt 0.344297 0.750608
vt 0.556318 0.275549
vt 0.000000 0.822744
vt 0.202485 0.974684
vt 0.122411 0.904426
vt 0.285421 0.415859
vt 0.373155 0.815461
vt 0.342574 0.283468
vt 0.000000 0.177256
vt 0.556318 0.050377
vt 0.202485 0.736427
vt 0.125784 0.102239
s 0
usemtl Material
f 2/4/1 8/23/1 12/37/1 4/10/1
f 4/11/2 3/7/2 1/1/2 2/5/2
f 12/38/3 10/30/3 3/8/3 4/12/3
f 5/13/4 1/2/4 3/9/4 10/31/4
f 7/20/5 6/17/5 9/27/5 11/34/5
f 6/18/6 7/21/6 8/24/6 5/14/6
f 10/32/7 12/39/7 11/35/7 9/28/7
f 5/15/8 10/33/8 9/29/8 6/19/8
f 12/40/9 8/25/9 7/22/9 11/36/9
f 2/6/10 1/3/10 5/16/10 8/26/10
