# Blender 3.3.1
# www.blender.org
mtllib panel_propio.mtl
o Cube
v 0.314758 1.507643 -1.507643
v 0.314758 -1.507643 -1.507643
v 0.314758 1.507643 1.507643
v 0.314758 -1.507643 1.507643
v -0.314758 1.507643 -1.507643
v -0.314758 -1.507643 -1.507643
v -0.314758 1.507643 1.507643
v -0.314758 -1.507643 1.507643
v 0.314758 1.160991 -1.079165
v 0.314758 0.688703 -1.079165
v 0.314758 1.160991 1.079165
v 0.314758 0.688703 1.079165
v 0.031010 1.160991 -1.079165
v 0.031010 0.688703 -1.079165
v 0.031010 1.160991 1.079165
v 0.031010 0.688703 1.079165
vn -0.0000 1.0000 -0.0000
vn -0.0000 -0.0000 1.0000
vn -1.0000 -0.0000 -0.0000
vn -0.0000 -1.0000 -0.0000
vn 1.0000 -0.0000 -0.0000
vn -0.0000 -0.0000 -1.0000
vt 0.625000 0.500000
vt 0.375000 0.500000
vt 0.625000 0.750000
vt 0.375000 0.750000
vt 0.875000 0.500000
vt 0.625000 0.250000
vt 0.125000 0.500000
vt 0.375000 0.250000
vt 0.875000 0.750000
vt 0.625000 1.000000
vt 0.625000 0.000000
vt 0.375000 1.000000
vt 0.375000 0.000000
vt 0.125000 0.750000
vt 0.625000 0.500000
vt 0.375000 0.500000
vt 0.625000 0.750000
vt 0.375000 0.750000
vt 0.625000 0.500000
vt 0.375000 0.500000
vt 0.625000 0.750000
vt 0.375000 0.750000
s 0
usemtl Material
f 1/1/1 5/5/1 7/9/1 3/3/1
f 4/4/2 3/3/2 7/10/2 8/12/2
f 8/13/3 7/11/3 5/6/3 6/8/3
f 6/7/4 2/2/4 4/4/4 8/14/4
f 3/3/5 4/4/5 12/18/5 11/17/5
f 6/8/6 5/6/6 1/1/6 2/2/6
f 12/18/1 10/16/1 14/20/1 16/22/1
f 2/2/5 1/1/5 9/15/5 10/16/5
f 4/4/5 2/2/5 10/16/5 12/18/5
f 1/1/5 3/3/5 11/17/5 9/15/5
f 14/20/5 13/19/5 15/21/5 16/22/5
f 11/17/6 12/18/6 16/22/6 15/21/6
f 9/15/4 11/17/4 15/21/4 13/19/4
f 10/16/2 9/15/2 13/19/2 14/20/2
o Cubo
v 0.055659 0.102866 0.435876
v 0.055659 0.537479 0.435876
v 0.055659 0.102866 0.001263
v 0.055659 0.537479 0.001263
v 0.490273 0.102866 0.435876
v 0.490273 0.537479 0.435876
v 0.490273 0.102866 0.001263
v 0.490273 0.537479 0.001263
vn -1.0000 -0.0000 -0.0000
vn -0.0000 -0.0000 -1.0000
vn 1.0000 -0.0000 -0.0000
vn -0.0000 -0.0000 1.0000
vn -0.0000 -1.0000 -0.0000
vn -0.0000 1.0000 -0.0000
vt 0.375000 0.000000
vt 0.375000 1.000000
vt 0.125000 0.750000
vt 0.625000 0.000000
vt 0.625000 1.000000
vt 0.875000 0.750000
vt 0.375000 0.250000
vt 0.125000 0.500000
vt 0.625000 0.250000
vt 0.875000 0.500000
vt 0.375000 0.750000
vt 0.625000 0.750000
vt 0.375000 0.500000
vt 0.625000 0.500000
s 0
f 17/23/7 18/26/7 20/31/7 19/29/7
f 19/29/8 20/31/8 24/36/8 23/35/8
f 23/35/9 24/36/9 22/34/9 21/33/9
f 21/33/10 22/34/10 18/27/10 17/24/10
f 19/30/11 23/35/11 21/33/11 17/25/11
f 24/36/12 20/32/12 18/28/12 22/34/12
o Cubo.001
v 0.055659 0.102866 1.067613
v 0.055659 0.537479 1.067613
v 0.055659 0.102866 0.632999
v 0.055659 0.537479 0.632999
v 0.490273 0.102866 1.067613
v 0.490273 0.537479 1.067613
v 0.490273 0.102866 0.632999
v 0.490273 0.537479 0.632999
vn -1.0000 -0.0000 -0.0000
vn -0.0000 -0.0000 -1.0000
vn 1.0000 -0.0000 -0.0000
vn -0.0000 -0.0000 1.0000
vn -0.0000 -1.0000 -0.0000
vn -0.0000 1.0000 -0.0000
vt 0.375000 0.000000
vt 0.375000 1.000000
vt 0.125000 0.750000
vt 0.625000 0.000000
vt 0.625000 1.000000
vt 0.875000 0.750000
vt 0.375000 0.250000
vt 0.125000 0.500000
vt 0.625000 0.250000
vt 0.875000 0.500000
vt 0.375000 0.750000
vt 0.625000 0.750000
vt 0.375000 0.500000
vt 0.625000 0.500000
s 0
f 25/37/13 26/40/13 28/45/13 27/43/13
f 27/43/14 28/45/14 32/50/14 31/49/14
f 31/49/15 32/50/15 30/48/15 29/47/15
f 29/47/16 30/48/16 26/41/16 25/38/16
f 27/44/17 31/49/17 29/47/17 25/39/17
f 32/50/18 28/46/18 26/42/18 30/48/18
o Cubo.002
v 0.055659 0.102866 -0.219352
v 0.055659 0.537479 -0.219352
v 0.055659 0.102866 -0.653966
v 0.055659 0.537479 -0.653966
v 0.490273 0.102866 -0.219352
v 0.490273 0.537479 -0.219352
v 0.490273 0.102866 -0.653966
v 0.490273 0.537479 -0.653966
vn -1.0000 -0.0000 -0.0000
vn -0.0000 -0.0000 -1.0000
vn 1.0000 -0.0000 -0.0000
vn -0.0000 -0.0000 1.0000
vn -0.0000 -1.0000 -0.0000
vn -0.0000 1.0000 -0.0000
vt 0.375000 0.000000
vt 0.375000 1.000000
vt 0.125000 0.750000
vt 0.625000 0.000000
vt 0.625000 1.000000
vt 0.875000 0.750000
vt 0.375000 0.250000
vt 0.125000 0.500000
vt 0.625000 0.250000
vt 0.875000 0.500000
vt 0.375000 0.750000
vt 0.625000 0.750000
vt 0.375000 0.500000
vt 0.625000 0.500000
s 0
f 33/51/19 34/54/19 36/59/19 35/57/19
f 35/57/20 36/59/20 40/64/20 39/63/20
f 39/63/21 40/64/21 38/62/21 37/61/21
f 37/61/22 38/62/22 34/55/22 33/52/22
f 35/58/23 39/63/23 37/61/23 33/53/23
f 40/64/24 36/60/24 34/56/24 38/62/24
o Cubo.003
v 0.055659 -0.493740 -0.219352
v 0.055659 -0.059127 -0.219352
v 0.055659 -0.493740 -0.653966
v 0.055659 -0.059127 -0.653966
v 0.490273 -0.493740 -0.219352
v 0.490273 -0.059127 -0.219352
v 0.490273 -0.493740 -0.653966
v 0.490273 -0.059127 -0.653966
vn -1.0000 -0.0000 -0.0000
vn -0.0000 -0.0000 -1.0000
vn 1.0000 -0.0000 -0.0000
vn -0.0000 -0.0000 1.0000
vn -0.0000 -1.0000 -0.0000
vn -0.0000 1.0000 -0.0000
vt 0.375000 0.000000
vt 0.375000 1.000000
vt 0.125000 0.750000
vt 0.625000 0.000000
vt 0.625000 1.000000
vt 0.875000 0.750000
vt 0.375000 0.250000
vt 0.125000 0.500000
vt 0.625000 0.250000
vt 0.875000 0.500000
vt 0.375000 0.750000
vt 0.625000 0.750000
vt 0.375000 0.500000
vt 0.625000 0.500000
s 0
f 41/65/25 42/68/25 44/73/25 43/71/25
f 43/71/26 44/73/26 48/78/26 47/77/26
f 47/77/27 48/78/27 46/76/27 45/75/27
f 45/75/28 46/76/28 42/69/28 41/66/28
f 43/72/29 47/77/29 45/75/29 41/67/29
f 48/78/30 44/74/30 42/70/30 46/76/30
o Cubo.004
v 0.055659 -0.493740 1.067613
v 0.055659 -0.059127 1.067613
v 0.055659 -0.493740 0.632999
v 0.055659 -0.059127 0.632999
v 0.490273 -0.493740 1.067613
v 0.490273 -0.059127 1.067613
v 0.490273 -0.493740 0.632999
v 0.490273 -0.059127 0.632999
vn -1.0000 -0.0000 -0.0000
vn -0.0000 -0.0000 -1.0000
vn 1.0000 -0.0000 -0.0000
vn -0.0000 -0.0000 1.0000
vn -0.0000 -1.0000 -0.0000
vn -0.0000 1.0000 -0.0000
vt 0.375000 0.000000
vt 0.375000 1.000000
vt 0.125000 0.750000
vt 0.625000 0.000000
vt 0.625000 1.000000
vt 0.875000 0.750000
vt 0.375000 0.250000
vt 0.125000 0.500000
vt 0.625000 0.250000
vt 0.875000 0.500000
vt 0.375000 0.750000
vt 0.625000 0.750000
vt 0.375000 0.500000
vt 0.625000 0.500000
s 0
f 49/79/31 50/82/31 52/87/31 51/85/31
f 51/85/32 52/87/32 56/92/32 55/91/32
f 55/91/33 56/92/33 54/90/33 53/89/33
f 53/89/34 54/90/34 50/83/34 49/80/34
f 51/86/35 55/91/35 53/89/35 49/81/35
f 56/92/36 52/88/36 50/84/36 54/90/36
o Cubo.005
v 0.055659 -0.493740 0.435876
v 0.055659 -0.059127 0.435876
v 0.055659 -0.493740 0.001263
v 0.055659 -0.059127 0.001263
v 0.490273 -0.493740 0.435876
v 0.490273 -0.059127 0.435876
v 0.490273 -0.493740 0.001263
v 0.490273 -0.059127 0.001263
vn -1.0000 -0.0000 -0.0000
vn -0.0000 -0.0000 -1.0000
vn 1.0000 -0.0000 -0.0000
vn -0.0000 -0.0000 1.0000
vn -0.0000 -1.0000 -0.0000
vn -0.0000 1.0000 -0.0000
vt 0.375000 0.000000
vt 0.375000 1.000000
vt 0.125000 0.750000
vt 0.625000 0.000000
vt 0.625000 1.000000
vt 0.875000 0.750000
vt 0.375000 0.250000
vt 0.125000 0.500000
vt 0.625000 0.250000
vt 0.875000 0.500000
vt 0.375000 0.750000
vt 0.625000 0.750000
vt 0.375000 0.500000
vt 0.625000 0.500000
s 0
f 57/93/37 58/96/37 60/101/37 59/99/37
f 59/99/38 60/101/38 64/106/38 63/105/38
f 63/105/39 64/106/39 62/104/39 61/103/39
f 61/103/40 62/104/40 58/97/40 57/94/40
f 59/100/41 63/105/41 61/103/41 57/95/41
f 64/106/42 60/102/42 58/98/42 62/104/42
o Cubo.006
v 0.055659 -1.140333 -0.219352
v 0.055659 -0.705719 -0.219352
v 0.055659 -1.140333 -0.653966
v 0.055659 -0.705719 -0.653966
v 0.490273 -1.140333 -0.219352
v 0.490273 -0.705719 -0.219352
v 0.490273 -1.140333 -0.653966
v 0.490273 -0.705719 -0.653966
vn -1.0000 -0.0000 -0.0000
vn -0.0000 -0.0000 -1.0000
vn 1.0000 -0.0000 -0.0000
vn -0.0000 -0.0000 1.0000
vn -0.0000 -1.0000 -0.0000
vn -0.0000 1.0000 -0.0000
vt 0.375000 0.000000
vt 0.375000 1.000000
vt 0.125000 0.750000
vt 0.625000 0.000000
vt 0.625000 1.000000
vt 0.875000 0.750000
vt 0.375000 0.250000
vt 0.125000 0.500000
vt 0.625000 0.250000
vt 0.875000 0.500000
vt 0.375000 0.750000
vt 0.625000 0.750000
vt 0.375000 0.500000
vt 0.625000 0.500000
s 0
f 65/107/43 66/110/43 68/115/43 67/113/43
f 67/113/44 68/115/44 72/120/44 71/119/44
f 71/119/45 72/120/45 70/118/45 69/117/45
f 69/117/46 70/118/46 66/111/46 65/108/46
f 67/114/47 71/119/47 69/117/47 65/109/47
f 72/120/48 68/116/48 66/112/48 70/118/48
o Cubo.007
v 0.055659 -1.140333 1.067613
v 0.055659 -0.705719 1.067613
v 0.055659 -1.140333 0.632999
v 0.055659 -0.705719 0.632999
v 0.490273 -1.140333 1.067613
v 0.490273 -0.705719 1.067613
v 0.490273 -1.140333 0.632999
v 0.490273 -0.705719 0.632999
vn -1.0000 -0.0000 -0.0000
vn -0.0000 -0.0000 -1.0000
vn 1.0000 -0.0000 -0.0000
vn -0.0000 -0.0000 1.0000
vn -0.0000 -1.0000 -0.0000
vn -0.0000 1.0000 -0.0000
vt 0.375000 0.000000
vt 0.375000 1.000000
vt 0.125000 0.750000
vt 0.625000 0.000000
vt 0.625000 1.000000
vt 0.875000 0.750000
vt 0.375000 0.250000
vt 0.125000 0.500000
vt 0.625000 0.250000
vt 0.875000 0.500000
vt 0.375000 0.750000
vt 0.625000 0.750000
vt 0.375000 0.500000
vt 0.625000 0.500000
s 0
f 73/121/49 74/124/49 76/129/49 75/127/49
f 75/127/50 76/129/50 80/134/50 79/133/50
f 79/133/51 80/134/51 78/132/51 77/131/51
f 77/131/52 78/132/52 74/125/52 73/122/52
f 75/128/53 79/133/53 77/131/53 73/123/53
f 80/134/54 76/130/54 74/126/54 78/132/54
o Cubo.008
v 0.055659 -1.140333 0.435876
v 0.055659 -0.705719 0.435876
v 0.055659 -1.140333 0.001263
v 0.055659 -0.705719 0.001263
v 0.490273 -1.140333 0.435876
v 0.490273 -0.705719 0.435876
v 0.490273 -1.140333 0.001263
v 0.490273 -0.705719 0.001263
vn -1.0000 -0.0000 -0.0000
vn -0.0000 -0.0000 -1.0000
vn 1.0000 -0.0000 -0.0000
vn -0.0000 -0.0000 1.0000
vn -0.0000 -1.0000 -0.0000
vn -0.0000 1.0000 -0.0000
vt 0.375000 0.000000
vt 0.375000 1.000000
vt 0.125000 0.750000
vt 0.625000 0.000000
vt 0.625000 1.000000
vt 0.875000 0.750000
vt 0.375000 0.250000
vt 0.125000 0.500000
vt 0.625000 0.250000
vt 0.875000 0.500000
vt 0.375000 0.750000
vt 0.625000 0.750000
vt 0.375000 0.500000
vt 0.625000 0.500000
s 0
f 81/135/55 82/138/55 84/143/55 83/141/55
f 83/141/56 84/143/56 88/148/56 87/147/56
f 87/147/57 88/148/57 86/146/57 85/145/57
f 85/145/58 86/146/58 82/139/58 81/136/58
f 83/142/59 87/147/59 85/145/59 81/137/59
f 88/148/60 84/144/60 82/140/60 86/146/60
o Cubo.009
v 0.055659 -1.146773 -0.886681
v 0.055659 -0.058040 -0.886681
v 0.055659 -1.146773 -1.321295
v 0.055659 -0.058040 -1.321295
v 0.490273 -1.146773 -0.886681
v 0.490273 -0.058040 -0.886681
v 0.490273 -1.146773 -1.321295
v 0.490273 -0.058040 -1.321295
vn -1.0000 -0.0000 -0.0000
vn -0.0000 -0.0000 -1.0000
vn 1.0000 -0.0000 -0.0000
vn -0.0000 -0.0000 1.0000
vn -0.0000 -1.0000 -0.0000
vn -0.0000 1.0000 -0.0000
vt 0.375000 0.000000
vt 0.375000 1.000000
vt 0.125000 0.750000
vt 0.625000 0.000000
vt 0.625000 1.000000
vt 0.875000 0.750000
vt 0.375000 0.250000
vt 0.125000 0.500000
vt 0.625000 0.250000
vt 0.875000 0.500000
vt 0.375000 0.750000
vt 0.625000 0.750000
vt 0.375000 0.500000
vt 0.625000 0.500000
s 0
f 89/149/61 90/152/61 92/157/61 91/155/61
f 91/155/62 92/157/62 96/162/62 95/161/62
f 95/161/63 96/162/63 94/160/63 93/159/63
f 93/159/64 94/160/64 90/153/64 89/150/64
f 91/156/65 95/161/65 93/159/65 89/151/65
f 96/162/66 92/158/66 90/154/66 94/160/66
o Cubo.010
v 0.055659 0.102866 -0.219352
v 0.055659 0.537479 -0.219352
v 0.055659 0.102866 -0.653966
v 0.055659 0.537479 -0.653966
v 0.490273 0.102866 -0.219352
v 0.490273 0.537479 -0.219352
v 0.490273 0.102866 -0.653966
v 0.490273 0.537479 -0.653966
vn -1.0000 -0.0000 -0.0000
vn -0.0000 -0.0000 -1.0000
vn 1.0000 -0.0000 -0.0000
vn -0.0000 -0.0000 1.0000
vn -0.0000 -1.0000 -0.0000
vn -0.0000 1.0000 -0.0000
vt 0.375000 0.000000
vt 0.375000 1.000000
vt 0.125000 0.750000
vt 0.625000 0.000000
vt 0.625000 1.000000
vt 0.875000 0.750000
vt 0.375000 0.250000
vt 0.125000 0.500000
vt 0.625000 0.250000
vt 0.875000 0.500000
vt 0.375000 0.750000
vt 0.625000 0.750000
vt 0.375000 0.500000
vt 0.625000 0.500000
s 0
f 97/163/67 98/166/67 100/171/67 99/169/67
f 99/169/68 100/171/68 104/176/68 103/175/68
f 103/175/69 104/176/69 102/174/69 101/173/69
f 101/173/70 102/174/70 98/167/70 97/164/70
f 99/170/71 103/175/71 101/173/71 97/165/71
f 104/176/72 100/172/72 98/168/72 102/174/72
