{
    "asset" : {
        "generator" : "Khronos glTF Blender I/O v3.3.32",
        "version" : "2.0"
    },
    "extensionsUsed" : [
        "KHR_materials_clearcoat"
    ],
    "scene" : 0,
    "scenes" : [
        {
            "name" : "Scene",
            "nodes" : [
                0
            ]
        }
    ],
    "nodes" : [
        {
            "mesh" : 0,
            "name" : "terraintilled_terraintilled_0",
            "scale" : [
                0.0012267827987670898,
                0.0012267830315977335,
                0.0012267830315977335
            ],
            "translation" : [
                3.8070361614227295,
                3.6162819862365723,
                1.9710246324539185
            ]
        }
    ],
    "materials" : [
        {
            "extensions" : {
                "KHR_materials_clearcoat" : {
                    "clearcoatFactor" : 0.09317835420370102,
                    "clearcoatRoughnessFactor" : 0.3431783616542816,
                    "clearcoatTexture" : {
                        "index" : 0
                    },
                    "clearcoatNormalTexture" : {
                        "index" : 1,
                        "scale" : 0.9529344439506531
                    }
                }
            },
            "name" : "terraintilled",
            "normalTexture" : {
                "index" : 2
            },
            "occlusionTexture" : {
                "index" : 3
            },
            "pbrMetallicRoughness" : {
                "baseColorTexture" : {
                    "index" : 4
                },
                "metallicFactor" : 0,
                "metallicRoughnessTexture" : {
                    "index" : 3
                }
            }
        }
    ],
    "meshes" : [
        {
            "name" : "terraintilled_terraintilled_0",
            "primitives" : [
                {
                    "attributes" : {
                        "POSITION" : 0,
                        "NORMAL" : 1,
                        "TEXCOORD_0" : 2,
                        "TEXCOORD_1" : 3
                    },
                    "indices" : 4,
                    "material" : 0
                }
            ]
        }
    ],
    "textures" : [
        {
            "sampler" : 0,
            "source" : 0
        },
        {
            "sampler" : 0,
            "source" : 1
        },
        {
            "sampler" : 0,
            "source" : 2
        },
        {
            "sampler" : 0,
            "source" : 3
        },
        {
            "sampler" : 0,
            "source" : 4
        }
    ],
    "images" : [
        {
            "mimeType" : "image/png",
            "name" : "terraintilled_clearcoat",
            "uri" : "terraintilled_clearcoat.png"
        },
        {
            "mimeType" : "image/png",
            "name" : "terraintilled_clearcoat_normal",
            "uri" : "terraintilled_clearcoat_normal.png"
        },
        {
            "mimeType" : "image/png",
            "name" : "terraintilled_normal",
            "uri" : "terraintilled_normal.png"
        },
        {
            "mimeType" : "image/png",
            "name" : "terraintilled_metallicRoughness",
            "uri" : "terraintilled_metallicRoughness.png"
        },
        {
            "mimeType" : "image/png",
            "name" : "terraintilled_baseColor",
            "uri" : "terraintilled_baseColor.png"
        }
    ],
    "accessors" : [
        {
            "bufferView" : 0,
            "componentType" : 5126,
            "count" : 2629,
            "max" : [
                10000,
                2993.09619140625,
                10000
            ],
            "min" : [
                -10000,
                -6.903801918029785,
                -10000
            ],
            "type" : "VEC3"
        },
        {
            "bufferView" : 1,
            "componentType" : 5126,
            "count" : 2629,
            "type" : "VEC3"
        },
        {
            "bufferView" : 2,
            "componentType" : 5126,
            "count" : 2629,
            "type" : "VEC2"
        },
        {
            "bufferView" : 3,
            "componentType" : 5126,
            "count" : 2629,
            "type" : "VEC2"
        },
        {
            "bufferView" : 4,
            "componentType" : 5123,
            "count" : 15435,
            "type" : "SCALAR"
        }
    ],
    "bufferViews" : [
        {
            "buffer" : 0,
            "byteLength" : 31548,
            "byteOffset" : 0,
            "target" : 34962
        },
        {
            "buffer" : 0,
            "byteLength" : 31548,
            "byteOffset" : 31548,
            "target" : 34962
        },
        {
            "buffer" : 0,
            "byteLength" : 21032,
            "byteOffset" : 63096,
            "target" : 34962
        },
        {
            "buffer" : 0,
            "byteLength" : 21032,
            "byteOffset" : 84128,
            "target" : 34962
        },
        {
            "buffer" : 0,
            "byteLength" : 30870,
            "byteOffset" : 105160,
            "target" : 34963
        }
    ],
    "samplers" : [
        {
            "magFilter" : 9729,
            "minFilter" : 9987
        }
    ],
    "buffers" : [
        {
            "byteLength" : 136032,
            "uri" : "valley.bin"
        }
    ]
}
