{
  "accessors": [
    {
      "bufferView": 2,
      "componentType": 5126,
      "count": 65532,
      "max": [
        295.2755432128906,
        101.92205047607422,
        2.6615359783172607
      ],
      "min": [
        -59.05509948730469,
        -101.92205047607422,
        -6.350669860839844
      ],
      "type": "VEC3"
    },
    {
      "bufferView": 2,
      "byteOffset": 786384,
      "componentType": 5126,
      "count": 65532,
      "max": [
        2.000000222324161e-06,
        0.1578209549188614,
        1.0
      ],
      "min": [
        -1.0000003385357559e-06,
        -0.15782193839550018,
        0.9874676465988159
      ],
      "type": "VEC3"
    },
    {
      "bufferView": 3,
      "componentType": 5126,
      "count": 65532,
      "max": [
        -1.0,
        0.00022643269039690495,
        3.608536280808039e-05,
        1.0
      ],
      "min": [
        -1.0,
        -8.220439667638857e-06,
        -3.590351843740791e-05,
        1.0
      ],
      "type": "VEC4"
    },
    {
      "bufferView": 1,
      "componentType": 5126,
      "count": 65532,
      "max": [
        1.7251930236816406,
        0.9957879781723022
      ],
      "min": [
        0.0017079999670386314,
        0.0042119999416172504
      ],
      "type": "VEC2"
    },
    {
      "bufferView": 0,
      "componentType": 5125,
      "count": 382647,
      "type": "SCALAR"
    },
    {
      "bufferView": 2,
      "byteOffset": 1572768,
      "componentType": 5126,
      "count": 65532,
      "max": [
        288.81640625,
        98.83829498291016,
        2.6615359783172607
      ],
      "min": [
        -52.59596252441406,
        -98.83829498291016,
        -5.857813835144043
      ],
      "type": "VEC3"
    },
    {
      "bufferView": 2,
      "byteOffset": 2359152,
      "componentType": 5126,
      "count": 65532,
      "max": [
        1.0000003385357559e-06,
        0.15782193839550018,
        1.0
      ],
      "min": [
        -1.0000003385357559e-06,
        -0.15782193839550018,
        0.9874676465988159
      ],
      "type": "VEC3"
    },
    {
      "bufferView": 3,
      "byteOffset": 1048512,
      "componentType": 5126,
      "count": 65532,
      "max": [
        -1.0,
        0.0001641256094444543,
        2.5218007067451254e-05,
        1.0
      ],
      "min": [
        -1.0,
        -1.0908748663496226e-05,
        -2.3870125005487353e-05,
        1.0
      ],
      "type": "VEC4"
    },
    {
      "bufferView": 1,
      "byteOffset": 524256,
      "componentType": 5126,
      "count": 65532,
      "max": [
        1.6937750577926636,
        0.9807850122451782
      ],
      "min": [
        0.03312499821186066,
        0.019213000312447548
      ],
      "type": "VEC2"
    },
    {
      "bufferView": 0,
      "byteOffset": 1530588,
      "componentType": 5125,
      "count": 381645,
      "type": "SCALAR"
    },
    {
      "bufferView": 2,
      "byteOffset": 3145536,
      "componentType": 5126,
      "count": 21170,
      "max": [
        288.81640625,
        97.95721435546875,
        2.3240180015563965
      ],
      "min": [
        -52.59596252441406,
        -98.83829498291016,
        -5.857813835144043
      ],
      "type": "VEC3"
    },
    {
      "bufferView": 2,
      "byteOffset": 3399576,
      "componentType": 5126,
      "count": 21170,
      "max": [
        1.0000003385357559e-06,
        0.1578209549188614,
        0.9981361031532288
      ],
      "min": [
        -1.0000003385357559e-06,
        -0.15782193839550018,
        0.9874676465988159
      ],
      "type": "VEC3"
    },
    {
      "bufferView": 3,
      "byteOffset": 2097024,
      "componentType": 5126,
      "count": 21170,
      "max": [
        -1.0,
        0.00015653508307877928,
        2.483035314071458e-05,
        1.0
      ],
      "min": [
        -1.0,
        -9.56060739554232e-06,
        -2.2239459212869406e-05,
        1.0
      ],
      "type": "VEC4"
    },
    {
      "bufferView": 1,
      "byteOffset": 1048512,
      "componentType": 5126,
      "count": 21170,
      "max": [
        1.6937719583511353,
        0.9807230234146118
      ],
      "min": [
        0.03316599875688553,
        0.02349800057709217
      ],
      "type": "VEC2"
    },
    {
      "bufferView": 0,
      "byteOffset": 3057168,
      "componentType": 5125,
      "count": 120444,
      "type": "SCALAR"
    },
    {
      "bufferView": 2,
      "byteOffset": 3653616,
      "componentType": 5126,
      "count": 63430,
      "max": [
        317.40411376953125,
        41.22666549682617,
        8.93566608428955
      ],
      "min": [
        -7.007445812225342,
        -41.22666549682617,
        0.0
      ],
      "type": "VEC3"
    },
    {
      "bufferView": 2,
      "byteOffset": 4414776,
      "componentType": 5126,
      "count": 63430,
      "max": [
        1.0,
        1.0,
        1.0
      ],
      "min": [
        -1.0,
        -1.0,
        -1.0
      ],
      "type": "VEC3"
    },
    {
      "bufferView": 3,
      "byteOffset": 2435744,
      "componentType": 5126,
      "count": 63430,
      "max": [
        1.0,
        1.0,
        1.0,
        1.0
      ],
      "min": [
        -1.0,
        -1.0,
        -1.0,
        -1.0
      ],
      "type": "VEC4"
    },
    {
      "bufferView": 1,
      "byteOffset": 1217872,
      "componentType": 5126,
      "count": 63430,
      "max": [
        0.9966710209846497,
        0.9998599886894226
      ],
      "min": [
        0.0005000000237487257,
        0.0005000000237487257
      ],
      "type": "VEC2"
    },
    {
      "bufferView": 0,
      "byteOffset": 3538944,
      "componentType": 5125,
      "count": 237264,
      "type": "SCALAR"
    }
  ],
  "asset": {
    "extras": {
      "author": "sBjamms (https://sketchfab.com/sbjamms11)",
      "license": "CC-BY-4.0 (http://creativecommons.org/licenses/by/4.0/)",
      "source": "https://sketchfab.com/3d-models/train-track-dff84793ce2f4d7ca19e67b5194eeca2",
      "title": "Train Track"
    },
    "generator": "Sketchfab-12.66.0",
    "version": "2.0"
  },
  "bufferViews": [
    {
      "buffer": 0,
      "byteLength": 4488000,
      "name": "floatBufferViews",
      "target": 34963
    },
    {
      "buffer": 0,
      "byteLength": 1725312,
      "byteOffset": 4488000,
      "byteStride": 8,
      "name": "floatBufferViews",
      "target": 34962
    },
    {
      "buffer": 0,
      "byteLength": 5175936,
      "byteOffset": 6213312,
      "byteStride": 12,
      "name": "floatBufferViews",
      "target": 34962
    },
    {
      "buffer": 0,
      "byteLength": 3450624,
      "byteOffset": 11389248,
      "byteStride": 16,
      "name": "floatBufferViews",
      "target": 34962
    }
  ],
  "buffers": [
    {
      "byteLength": 14839872,
      "uri": "scene.bin"
    }
  ],
  "images": [
    {
      "uri": "textures/Solid_baseColor.jpeg"
    },
    {
      "uri": "textures/Solid_metallicRoughness.png"
    },
    {
      "uri": "textures/Solid_normal.png"
    },
    {
      "uri": "textures/Wall_baseColor.jpeg"
    },
    {
      "uri": "textures/Wall_metallicRoughness.png"
    },
    {
      "uri": "textures/Wall_normal.png"
    }
  ],
  "materials": [
    {
      "doubleSided": true,
      "name": "Solid",
      "normalTexture": {
        "index": 2
      },
      "occlusionTexture": {
        "index": 1
      },
      "pbrMetallicRoughness": {
        "baseColorTexture": {
          "index": 0
        },
        "metallicRoughnessTexture": {
          "index": 1
        }
      }
    },
    {
      "doubleSided": true,
      "name": "Wall",
      "normalTexture": {
        "index": 5
      },
      "occlusionTexture": {
        "index": 4
      },
      "pbrMetallicRoughness": {
        "baseColorTexture": {
          "index": 3
        },
        "metallicRoughnessTexture": {
          "index": 4
        }
      }
    }
  ],
  "meshes": [
    {
      "name": "defaultMaterial",
      "primitives": [
        {
          "attributes": {
            "NORMAL": 1,
            "POSITION": 0,
            "TANGENT": 2,
            "TEXCOORD_0": 3
          },
          "indices": 4,
          "material": 1,
          "mode": 4
        }
      ]
    },
    {
      "name": "defaultMaterial",
      "primitives": [
        {
          "attributes": {
            "NORMAL": 6,
            "POSITION": 5,
            "TANGENT": 7,
            "TEXCOORD_0": 8
          },
          "indices": 9,
          "material": 1,
          "mode": 4
        }
      ]
    },
    {
      "name": "defaultMaterial",
      "primitives": [
        {
          "attributes": {
            "NORMAL": 11,
            "POSITION": 10,
            "TANGENT": 12,
            "TEXCOORD_0": 13
          },
          "indices": 14,
          "material": 1,
          "mode": 4
        }
      ]
    },
    {
      "name": "defaultMaterial",
      "primitives": [
        {
          "attributes": {
            "NORMAL": 16,
            "POSITION": 15,
            "TANGENT": 17,
            "TEXCOORD_0": 18
          },
          "indices": 19,
          "material": 0,
          "mode": 4
        }
      ]
    }
  ],
  "nodes": [
    {
      "children": [
        1
      ],
      "matrix": [
        1.0,
        0.0,
        0.0,
        0.0,
        0.0,
        2.220446049250313e-16,
        -1.0,
        0.0,
        0.0,
        1.0,
        2.220446049250313e-16,
        0.0,
        0.0,
        0.0,
        0.0,
        1.0
      ],
      "name": "Sketchfab_model"
    },
    {
      "children": [
        2,
        6
      ],
      "matrix": [
        1.0,
        0.0,
        0.0,
        0.0,
        0.0,
        -4.371139006309477e-08,
        0.999999999999999,
        0.0,
        0.0,
        -0.999999999999999,
        -4.371139006309477e-08,
        0.0,
        0.0,
        0.0,
        0.0,
        1.0
      ],
      "name": "Collada visual scene group"
    },
    {
      "children": [
        3,
        4,
        5
      ],
      "matrix": [
        1.0,
        0.0,
        0.0,
        0.0,
        0.0,
        0.0,
        -1.0,
        0.0,
        0.0,
        1.0,
        0.0,
        0.0,
        -236.220459,
        0.0,
        0.0,
        1.0
      ],
      "name": "Plane009"
    },
    {
      "mesh": 0,
      "name": "defaultMaterial"
    },
    {
      "mesh": 1,
      "name": "defaultMaterial"
    },
    {
      "mesh": 2,
      "name": "defaultMaterial"
    },
    {
      "children": [
        7
      ],
      "matrix": [
        1.0,
        0.0,
        0.0,
        0.0,
        0.0,
        0.0,
        -1.0,
        0.0,
        0.0,
        1.0,
        0.0,
        0.0,
        -276.852692,
        2.191784,
        0.0,
        1.0
      ],
      "name": "Plane007"
    },
    {
      "mesh": 3,
      "name": "defaultMaterial"
    }
  ],
  "samplers": [
    {
      "magFilter": 9729,
      "minFilter": 9987,
      "wrapS": 10497,
      "wrapT": 10497
    }
  ],
  "scene": 0,
  "scenes": [
    {
      "name": "Sketchfab_Scene",
      "nodes": [
        0
      ]
    }
  ],
  "textures": [
    {
      "sampler": 0,
      "source": 0
    },
    {
      "sampler": 0,
      "source": 1
    },
    {
      "sampler": 0,
      "source": 2
    },
    {
      "sampler": 0,
      "source": 3
    },
    {
      "sampler": 0,
      "source": 4
    },
    {
      "sampler": 0,
      "source": 5
    }
  ]
}
